<svg width="40" height="39" viewBox="0 0 40 39" fill="none" xmlns="http://www.w3.org/2000/svg">
<path d="M5 14.8593H10M18.3333 14.8593H35" stroke="white" stroke-width="3" stroke-linecap="round" stroke-linejoin="round"/>
<path d="M9.24999 34.0143C9.24999 31.1411 10.9167 31.1411 10.9167 28.2678C10.9167 25.3946 9.24999 25.3786 9.24999 22.5053C9.24999 19.6321 10.9167 19.6321 10.9167 16.7588C10.9167 13.8856 9.24999 13.9015 9.24999 11.0283C9.23328 9.92291 9.5643 8.83831 10.2 7.91559" stroke="white" stroke-width="3" stroke-linecap="round" stroke-linejoin="round"/>
<path d="M15.9 34.0143C15.9 31.1411 17.5667 31.1411 17.5667 28.2678C17.5667 25.3946 15.9 25.3786 15.9 22.5053C15.9 19.6321 17.5667 19.6321 17.5667 16.7588C17.5667 13.8856 15.9 13.9015 15.9 11.0283C15.9775 9.6523 16.4316 8.32006 17.2167 7.16534" stroke="white" stroke-width="3" stroke-linecap="round" stroke-linejoin="round"/>
<path d="M5 8.47427L34.9167 5.28177" stroke="white" stroke-width="3" stroke-linecap="round" stroke-linejoin="round"/>
</svg>
